<svg xmlns="http://www.w3.org/2000/svg" width="32" height="32" class="icon" viewBox="0 0 1024 1024">
  <defs/>
  <defs/>
  <path fill="#903749" d="M512 512h-.029c-123.699-.016-223.97-100.298-223.97-224C288 164.288 388.287 64.001 512 64.001c123.712 0 224 100.288 224 224 0 59.836-23.463 114.19-61.688 154.37a15.949 15.949 0 00-4.765 11.39c0 8.835 7.164 16 16 16 4.414 0 8.409-1.787 11.303-4.676l.009.008C740.924 419.11 768 356.717 768 288.001 768 146.615 653.385 32 512 32s-256 114.615-256 256c0 104.702 62.858 194.721 152.895 234.385C175.545 570.096 0 776.548 0 1024h32c0-265.096 214.904-480 480-480 265.097 0 480 214.904 480 480h32c0-282.77-229.23-512-512-512z"/>
</svg>
