<svg xmlns="http://www.w3.org/2000/svg" width="32" height="32" class="icon" viewBox="0 0 1024 1024">
  <defs/>
  <defs/>
  <path fill="#903749" d="M810.915 793.74v154.234L658.482 854.12c-21.133 3.45-42.846 5.475-65.122 5.475-104.715 0-198.506-40.076-263.24-103.375 10.651.615 21.256 1.392 32.09 1.392 15.186 0 30.162-.751 44.986-1.943 51.108 35.17 115.729 56.334 186.164 56.334 24.278 0 47.756-2.776 70.356-7.488l52.987 35.328c-.058.015-.108.043-.165.063l39.987 26.483v-96.366c81.801-46.104 135.972-125.717 135.972-216.37 0-57.34-21.895-110.136-58.494-152.996 2.438-16.729 4.105-33.663 4.105-50.958 0-7.914-.862-15.637-1.378-23.435 67.723 56.354 110.157 135.757 110.157 223.992 0 98.97-53.32 186.862-135.972 243.485zm-380.72-97.315c-22.279 0-43.991-2.019-65.124-5.466l-152.43 93.844V630.58C129.989 573.957 76.667 486.055 76.667 387.085c0-170.836 158.281-309.33 353.529-309.33 195.246 0 353.525 138.494 353.525 309.33 0 170.85-158.28 309.34-353.525 309.34zm0-564.278c-165.209 0-299.137 115.666-299.137 258.338 0 90.655 54.17 170.265 135.97 216.371v96.367l39.986-26.488c-.055-.015-.106-.041-.164-.06l52.986-35.325c22.603 4.71 46.079 7.482 70.359 7.482 165.208 0 299.136-115.658 299.136-258.346 0-142.674-133.927-258.34-299.135-258.34zM606.958 431.28c-22.527 0-40.791-18.26-40.791-40.795 0-22.521 18.265-40.786 40.79-40.786 22.53 0 40.795 18.265 40.795 40.786 0 22.535-18.264 40.795-40.794 40.795zm-163.166 0c-22.528 0-40.792-18.26-40.792-40.795 0-22.521 18.265-40.786 40.792-40.786 22.529 0 40.792 18.265 40.792 40.786 0 22.535-18.262 40.795-40.792 40.795zm-163.167 0c-22.527 0-40.789-18.26-40.789-40.795 0-22.521 18.262-40.786 40.79-40.786s40.793 18.265 40.793 40.786c0 22.535-18.264 40.795-40.794 40.795z"/>
</svg>
