<svg xmlns="http://www.w3.org/2000/svg" width="32.031" height="32" class="icon" viewBox="0 0 1025 1024">
  <defs/>
  <defs/>
  <path fill="#903749" d="M512 614.4a25.702 25.702 0 01-9.933-1.997l-486.4-204.8a25.651 25.651 0 010-47.206l486.4-204.8a25.702 25.702 0 0119.866 0l486.4 204.8a25.651 25.651 0 010 47.206l-486.4 204.8A25.702 25.702 0 01512 614.4zM91.546 384L512 560.998 932.454 384 512 207.002 91.546 384z"/>
  <path fill="#903749" d="M512 768a25.702 25.702 0 01-9.933-1.997l-486.4-204.8a25.6 25.6 0 0119.866-47.206L512 714.598l476.467-200.601a25.6 25.6 0 1119.866 47.206l-486.4 204.8A25.702 25.702 0 01512 768z"/>
  <path fill="#903749" d="M512 921.6a25.702 25.702 0 01-9.933-1.997l-486.4-204.8a25.6 25.6 0 0119.866-47.206L512 868.198l476.467-200.601a25.6 25.6 0 1119.866 47.206l-486.4 204.8A25.702 25.702 0 01512 921.6z"/>
</svg>
