<svg xmlns="http://www.w3.org/2000/svg" width="32" height="32" class="icon" viewBox="0 0 1024 1024">
  <defs/>
  <defs/>
  <path fill="#903749" d="M1013.895 321.264L521.75 3.456a17.971 17.971 0 00-19.503 0L10.105 321.264a17.975 17.975 0 000 30.197l170.113 109.853a18.108 18.108 0 00-.288 3.129v207.914c0 40.154 36.77 76.372 103.533 101.985 61.33 23.527 142.49 36.486 228.536 36.486s167.21-12.958 228.54-36.486c66.763-25.613 103.532-61.831 103.532-101.985V464.443c0-1.07-.11-2.11-.29-3.129l59.938-38.705v332.968c-18.744 7.243-32.096 25.407-32.096 46.675 0 20.611 12.525 38.344 30.358 46.013l-34.859 153.194a17.977 17.977 0 003.475 15.2 17.973 17.973 0 0014.05 6.76h74.14c9.926 0 17.973-8.043 17.973-17.973 0-1.86-.281-3.656-.808-5.346l-34.55-151.835c17.834-7.668 30.358-25.4 30.358-46.012 0-21.268-13.352-39.432-32.096-46.676V399.396l74.23-47.935a17.973 17.973 0 000-30.197zm-92.204 495.11c-7.787 0-14.122-6.334-14.122-14.122 0-7.785 6.335-14.122 14.122-14.122s14.122 6.338 14.122 14.122c0 7.788-6.334 14.122-14.122 14.122zm-14.523 171.098l14.523-63.819 14.523 63.82h-29.046zm-99.045-315.115C808.123 720.85 686.51 774.88 512 774.88c-174.509 0-296.122-54.03-296.122-102.524V484.34l286.37 184.929a17.946 17.946 0 009.752 2.876 17.954 17.954 0 009.752-2.876l286.373-184.93v188.017zM512 632.777L52.987 336.361 512 39.949l459.014 296.413-459.014 296.414z"/>
  <path fill="#903749" d="M448.247 336.362c0 35.154 28.6 63.754 63.752 63.754 35.154 0 63.754-28.6 63.754-63.754 0-35.153-28.6-63.752-63.754-63.752-35.152 0-63.752 28.599-63.752 63.752zm91.56 0c0 15.333-12.475 27.807-27.808 27.807s-27.805-12.474-27.805-27.807c0-15.332 12.472-27.805 27.805-27.805s27.807 12.473 27.807 27.805z"/>
</svg>
