<svg xmlns="http://www.w3.org/2000/svg" width="32" height="32" class="icon" viewBox="0 0 1024 1024">
  <defs/>
  <defs/>
  <path fill="#4A86C5" d="M0 511.998a511.998 511.998 0 101023.997 0A511.998 511.998 0 100 511.998z"/>
  <path fill="#3D80B2" d="M874.018 149.912c199.948 199.965 199.965 524.15 0 724.113-199.948 199.947-524.156 199.947-724.104 0l724.104-724.113z"/>
  <path fill="#4A86C5" d="M999.612 668.232c1.875-5.862 3.582-11.788 5.254-17.73a603.713 603.713 0 01-5.254 17.73z"/>
  <path fill="#377CA5" d="M1004.907 650.39l-.032.114zm0 0L727.533 373.015l-63.1 63.1-43.867-43.868-36.614 36.614-214.413-214.417-13.299-5.07-82.277 82.278 99.32 99.312-97.224 97.218 94.945 94.945L267.189 686.95l330.174 329.826C787.465 984.842 941.985 848.26 999.62 668.24a637.927 637.927 0 005.255-17.73.324.324 0 01.032-.121z"/>
  <path fill="#FFF" d="M774.73 497.94v189.883H664.658V510.657c0-44.499-15.934-74.88-55.768-74.88-30.43 0-48.524 20.47-56.494 40.262-2.902 7.082-3.647 16.928-3.647 26.841v184.936H438.653s1.472-300.059 0-331.137h110.09v46.929c-.204.348-.51.734-.712 1.076h.711v-1.076c14.626-22.525 40.754-54.716 99.223-54.716 72.462.006 126.765 47.335 126.765 149.047zM323.448 197.045c-37.658 0-62.309 24.716-62.309 57.199 0 31.796 23.923 57.246 60.853 57.246h.743c38.386 0 62.276-25.45 62.276-57.246-.726-32.485-23.888-57.199-61.563-57.199zm-55.775 490.775h110.072V356.685H267.673v331.136z"/>
</svg>
