<svg xmlns="http://www.w3.org/2000/svg" width="141" height="35" stroke="none" stroke-linecap="round" stroke-linejoin="round" fill="#fff" fill-rule="nonzero"><path d="M129.316 12.133c-.3424 0-.6752.0609-.9697.2043l-9.3201 4.6362c-.6032.2991-.9698.8646-.9698 1.4658v9.2552c0 .6009.3666 1.1653.9698 1.4655l2.4339 1.2083c1.1827.502 1.6188.4939 2.1571.4939 1.7507 0 2.7502-.915 2.7502-2.5053v-9.131c0-.129-.1297-.2213-.2769-.2213h-1.1675c-.1496 0-.277.0947-.277.2213v9.1356c0 .7051-.8525 1.4142-2.236.8182l-2.5302-1.2782c-.0894-.0418-.1584-.1186-.1584-.2043v-9.2555c0-.0874.0682-.1771.1584-.2213l9.3006-4.6194c.0871-.0433.1909-.0433.277 0l9.3006 4.6194c.0885.0456.1584.1308.1584.2213v9.2555a.25.25 0 0 1-.1386.2213l-9.3201 4.6194c-.0825.041-.1926.041-.277 0l-2.3944-1.2273c-.0715-.0358-.1685-.0329-.2374 0-.6608.323-.7852.3602-1.4048.5454-.1526.0459-.385.1172.0792.3412l3.1265 1.5873c.2977.1482.6292.2213.9697.2213s.672-.0709.9698-.2213l9.3201-4.6193c.6032-.3024.9698-.8647.9698-1.4659v-9.2552c0-.6012-.3666-1.1653-.9698-1.4658l-9.3201-4.6358c-.292-.1437-.6271-.2047-.9698-.2047zm2.4934 6.6135c-2.654 0-4.2346.9729-4.2346 2.5907 0 1.7527 1.5688 2.237 4.116 2.4541 3.0473.2569 3.285.6425 3.285 1.1592 0 .8958-.8295 1.2781-2.7902 1.2781-2.4631 0-3.0046-.5296-3.1859-1.5874-.0215-.1129-.1227-.2042-.2572-.2042h-1.21c-.1516.0029-.2736.1079-.277.2386 0 1.3508.8531 2.9484 4.9275 2.9484 2.949 0 4.65-.9948 4.65-2.744 0-1.7293-1.374-2.1966-4.2345-2.523-2.8879-.3314-3.1662-.4902-3.1662-1.0738 0-.4814.2338-1.1252 2.3746-1.1252 1.9122 0 2.6191.3553 2.909 1.4658.0253.1043.132.1895.2571.1895h1.2102c.0742 0 .1463-.039.198-.0852s.0863-.1043.0792-.1703c-.187-1.913-1.6678-2.8124-4.6502-2.8124z" fill="#83cd29"/><path d="M74.5223.0004c-.1039.0002-.2064.0236-.2968.0681-.1829.0922-.2957.2608-.2967.443v13.0391c0 .1277-.0693.2425-.1981.3067a.47.47 0 0 1-.4155 0L70.8416 12.63c-.3672-.1827-.82-.1827-1.1871 0l-9.8742 4.909c-.3689.1832-.5941.5359-.5941.9032v9.8171c-.0006.3657.2259.7037.5938.8863l9.8745 4.9086c.3669.1836.8201.1836 1.1871 0l9.8743-4.9086c.3679-.1826.5944-.5206.5938-.8863V3.7842c0-.3725-.236-.7218-.6133-.9032L74.8193.0511c-.0924-.0444-.1945-.0521-.297-.051zM11.002 12.2548c-.1884.0069-.3651.0348-.5344.1197L.5935 17.283c-.3682.1822-.5947.5204-.5935.8862l.0203 13.1753c0 .1834.1098.3536.2969.4431a.656.656 0 0 0 .5936 0l5.8571-2.8977c.3714-.1895.6133-.5201.6133-.8859v-6.1533c0-.3671.2242-.7034.5941-.8859l2.4933-1.2439c.1802-.0906.3852-.1373.5936-.1366s.4135.0459.5937.1366l2.4924 1.2433c.3696.1823.5935.519.5935.8861v6.1529c0 .366.2475.6987.6133.886l5.8572 2.8976c.1845.0947.4113.0947.5936 0s.297-.26.297-.443l.0199-13.1751c.0023-.3661-.2245-.705-.5936-.8863l-9.874-4.9081c-.167-.0847-.3446-.1129-.5345-.1197h-.118zm88.7304.1197c-.2084-.0005-.4133.0464-.5937.1363l-9.8744 4.9088c-.3686.1834-.594.5193-.594.8859v9.8176c0 .369.2414.7034.6133.8859l9.7951 4.8089c.3616.1776.803.1911 1.1675.0164l5.9365-2.8463c.1884-.0902.3156-.2584.3162-.4429s-.1106-.3514-.297-.4431l-9.934-4.9089c-.1859-.0913-.3163-.2766-.3163-.4604V21.663c0-.1834.132-.3516.3163-.443l3.0869-1.5339c.1837-.0915.4092-.0915.5941 0l3.0883 1.5339c.184.091.2974.2602.2967.443v2.4202c-.0006.1831.1127.3518.2968.443s.4092.0924.5942 0l5.9162-2.9651c.3672-.1838.5941-.5204.5941-.8859v-2.3688c0-.3656-.2263-.7035-.5939-.8863l-9.8149-4.9087c-.1803-.0903-.3852-.137-.5937-.1368zm-29.5242 7.3291c.0553 0 .1097.0116.1584.0341l3.3838 1.6874c.0918.0456.1585.1301.1585.2213v3.3746c0 .0918-.0662.176-.1585.2217l-3.3838 1.6874c-.0919.0447-.2046.0447-.297 0l-3.3837-1.6874c-.0921-.0457-.1583-.1304-.1583-.2217v-3.3753c0-.0911.0666-.175.1583-.2212l3.3837-1.6872c.0463-.0229.0868-.0337.1386-.0337v-.0002z" fill="#404137"/><path d="M40.6648 12.3231c-.2084-.0004-.4134.0468-.5941.1363l-9.8743 4.8918c-.369.1837-.5935.5366-.5935.9033v9.8174c-.0011.3657.2254.7037.5935.8859l9.8743 4.9088c.3671.1834.8203.1834 1.1873 0l9.8744-4.9088c.3678-.1826.5944-.5205.5938-.8862v-9.8171c0-.3675-.2245-.7203-.5941-.9033l-9.8742-4.8918c-.1806-.0903-.3856-.1374-.5941-.1366zm59.0484 8.761c-.0393 0-.083 0-.1188.0163l-1.8996.955c-.072.0343-.1174.099-.1188.1702v1.8748c0 .0708.0476.135.1188.1706l1.8996.9373c.0666.0356.1507.0356.2173 0l1.8996-.9373c.0704-.0348.1188-.0998.1188-.1706v-1.8748c0-.0708-.0481-.1352-.1188-.1706l-1.8996-.9548c-.0352-.0178-.0594-.0164-.099-.0164z" fill="#83cd29"/></svg>