<svg xmlns="http://www.w3.org/2000/svg" width="70" height="80" stroke="none" stroke-linecap="round"
     stroke-linejoin="round" fill="#fff" fill-rule="nonzero">
    <path d="M16.581 6.7049l-1.697 1.6565c2.8283 2.7606 2.8283 7.2575 0 10.0181s-7.4316 2.7608-10.2586 0-2.8283-7.2575 0-10.0181l4.5224-4.4175.566-.6308V0l-6.866 6.7049C1.0256 8.4665 0 10.8664 0 13.3704s1.0256 4.904 2.8478 6.6656c1.8039 1.7795 4.2613 2.7806 6.8257 2.7806s5.023-1.0011 6.826-2.7806c3.8772-3.7072 3.8772-9.7024.0815-13.3311zm-4.6856-1.7356c0-.6988.5761-1.2618 1.2925-1.2618s1.2927.563 1.2927 1.2618-.5761 1.2623-1.2927 1.2623-1.2925-.5628-1.2925-1.2623z"
          fill="#ee4c2c"/>
    <path d="M26.9706 12.7232h-1.328v3.3352h-.9909V6.5911h2.4241c2.5697 0 3.7831 1.2186 3.7831 2.9821 0 2.0803-1.5057 3.1201-3.893 3.1556zm.0663-5.2358h-1.4263v4.3396l1.3961-.0354c1.8365-.036 2.8287-.7537 2.8287-2.224 0-1.3268-.9547-2.0802-2.7906-2.0802zm8.308 8.5346l-.5872 1.5062c-.6616 1.6855-1.328 2.1875-2.3137 2.1875-.5513 0-.9553-.1424-1.3952-.3227l.2923-.8605c.3317.1797.6976.2866 1.1029.2866.5507 0 .9547-.2866 1.4687-1.6208l.478-1.2193-2.7539-6.8492h1.0284l2.241 5.7381 2.2046-5.7381h.9909zm6.0591-8.4989v8.5717h-.9914V7.5231h-3.4154v-.932h7.8217v.8963H41.404zm6.2067 8.7498c-1.983 0-3.4517-1.4338-3.4517-3.658s1.5057-3.6939 3.5175-3.6939c1.9841 0 3.4161 1.4341 3.4161 3.6581s-1.506 3.6938-3.4889 3.6938zm.0371-6.4836c-1.5061 0-2.4969 1.1831-2.4969 2.7971 0 1.6858 1.0288 2.8333 2.5335 2.8333s2.4974-1.1833 2.4974-2.7971c0-1.6857-1.0302-2.8333-2.534-2.8333zm5.914 6.3046h-.9566v-6.957l.9566-.1797v1.4706c.4781-.8963 1.1739-1.4706 2.0929-1.4706.4367.0038.8675.1148 1.2479.3227l-.2559.8964c-.2941-.1797-.6976-.2866-1.1019-.2866-.734 0-1.4332.5381-2.0201 1.7936v4.4106zm7.1239.179c-2.13 0-3.489-1.506-3.489-3.658 0-2.1876 1.4677-3.6939 3.489-3.6939.8811 0 1.6159.2155 2.2399.6096l-.257.8603c-.5499-.3585-1.2108-.574-1.9829-.574-1.5432 0-2.4956 1.1125-2.4956 2.7622 0 1.6857 1.0275 2.7971 2.5334 2.7971.7035-.003 1.3914-.2022 1.9833-.5737l.1826.8602c-.6238.3944-1.3952.6093-2.2037.6093zm8.19-.179V11.611c0-1.2186-.514-1.7503-1.506-1.7503-.8085 0-1.616.394-2.2037 1.0048v5.271h-.9565V5.8796l.9565-.1797v4.3751c.7337-.7169 1.6877-1.1117 2.4596-1.1117 1.3961 0 2.24.8603 2.24 2.3663v4.7697z"
          fill="#252525"/>
</svg>