<svg xmlns="http://www.w3.org/2000/svg" width="109" height="42"
     >
    <path d="M16.8381 20.5484c0-2.3081 1.6373-4.1661 3.6709-4.1661s3.6711 1.858 3.6711 4.1661-1.6373 4.166-3.6711 4.166-3.6709-1.8582-3.6709-4.166z"
          stroke="none" fill="#00d8ff"/>
    <g stroke="#00d8ff" fill="none" stroke-width="1.6628">
        <path d="M20.5094 12.0779c4.9286 0 9.5073.8026 12.9599 2.1513 4.1596 1.6253 6.7171 4.0886 6.7171 6.319 0 2.3244-2.7104 4.9414-7.1773 6.6208-3.3773 1.27-7.8212 1.9327-12.4997 1.9327-4.797 0-9.3398-.622-12.755-1.9465-4.3203-1.676-6.923-4.3267-6.923-6.607 0-2.2123 2.4419-4.6567 6.5431-6.2793 3.4651-1.371 8.1572-2.191 13.1339-2.191z"/>
        <path d="M14.0115 16.3375c2.4626-4.8452 5.3625-8.9457 8.1171-11.6659C25.447 1.3943 28.605.1108 30.3075 1.2249c1.7746 1.1614 2.4178 5.1334 1.4684 10.3636-.7169 3.9544-2.4319 8.654-4.7693 13.2536-2.3966 4.7158-5.1406 8.8707-7.8575 11.5655-3.4379 3.4105-6.7616 4.6447-8.5017 3.5054-1.6892-1.1044-2.3349-4.7267-1.5247-9.5692.6845-4.0914 2.4025-9.1135 4.888-14.0063z"/>
        <path d="M14.0177 24.8544c-2.4693-4.8399-4.1504-9.7399-4.8523-13.8064-.8447-4.8996-.2474-8.6455 1.4535-9.763 1.7726-1.1645 5.1264.1864 8.6451 3.732 2.6604 2.6807 5.3921 6.7129 7.7364 11.3082 2.4034 4.7113 4.2047 9.4843 4.9055 13.5012.8867 5.0834.1691 8.9673-1.57 10.1096-1.6871 1.1086-4.7746-.0649-8.0668-3.28-2.7817-2.7163-5.7577-6.9136-8.2514-11.8017z"/>
    </g>
    <path d="M61.2584 31.192l-4.4995-7.7145c2.2743-.2278 4.3231-2.0976 4.3231-5.5139 0-3.476-2.1737-5.7007-5.2231-5.7007h-6.6965v18.9148h2.0745v-7.5155h3.324l4.2482 7.5155zm-5.6478-9.5856h-4.3727V14.375h4.3727c1.9754 0 3.324 1.4742 3.324 3.6018s-1.3496 3.632-3.324 3.632zm13.3702 9.9249c1.9749 0 3.5985-.7372 4.7983-2.0976l-.8999-1.3904c-.9506 1.1064-2.3491 1.7297-3.7234 1.7297-2.598 0-4.1983-2.1554-4.3484-4.7349h9.7702v-.5393c0-4.1113-2.1494-7.3454-5.7985-7.3454-3.4488 0-5.9467 3.2053-5.9467 7.1752 0 4.2828 2.5737 7.1919 6.147 7.1919zm3.7496-8.0549h-7.922c.1005-2.0977 1.3732-4.5668 3.9483-4.5668 2.7496 0 3.948 2.5243 3.9737 4.5668zm14.295 7.7145v-9.4154c0-3.318-2.1231-4.6233-4.6729-4.6233-1.975 0-3.5233.7372-4.8227 2.269l.8747 1.4744c1.074-1.304 2.2495-1.8999 3.6987-1.8999 1.7494 0 3.0494 1.0488 3.0494 2.8924v2.4669c-.9749-1.2765-2.3492-1.8724-3.999-1.8724-2.0489 0-4.2249 1.4468-4.2249 4.5093 0 2.9777 2.1737 4.5383 4.2249 4.5383 1.6246 0 2.9998-.6521 3.999-1.8999v1.5582zm-5.1968-1.1914c-1.749 0-2.9741-1.2467-2.9741-2.9775 0-1.7585 1.2251-3.0062 2.9741-3.0062 1.3247 0 2.5984.567 3.324 1.702v2.5808c-.7246 1.1338-1.9993 1.702-3.324 1.702zm14.2594 1.5318c2.199 0 3.498-1.0213 4.4233-2.3816l-1.2494-1.3043c-.7995 1.2192-1.8243 1.786-3.0629 1.786-2.5743 0-4.1721-2.269-4.1721-5.3028s1.5988-5.2742 4.1721-5.2742c1.2493 0 2.2741.5396 3.0629 1.786l1.2494-1.304c-.9239-1.3617-2.2243-2.3819-4.4233-2.3819-3.5985 0-6.0229 3.1202-6.0229 7.1752 0 4.0838 2.4244 7.1921 6.0229 7.1921zm10.0978 0c1.0983 0 1.7742-.3692 2.2495-.8786l-.5491-1.5881c-.2503.3115-.7396.5668-1.2751.5668-.8238 0-1.2252-.7372-1.2252-1.7583v-8.5082h2.4507v-1.8711h-2.4507v-3.7435h-1.8748v3.7435h-1.9993v1.8724h1.9993v8.9622c0 2.0426.9 3.2053 2.6747 3.2053z"
          stroke="none" fill="#00d8ff"/>
</svg>