<svg xmlns="http://www.w3.org/2000/svg" width="96" height="37" stroke="none" stroke-linecap="round" stroke-linejoin="round" fill="#fff" fill-rule="nonzero"><path d="M10.6978 19.7343l3.5664-2.8714 3.5135 2.8714-3.5135 2.81-3.5664-2.7498zM0 11.2426L14.2722 0l10.6093 8.3689-3.5135 8.4915-7.0877-5.6197-10.6954 8.4314z" fill="#f6bd3a"/><path d="M10.6995 30.9741v-5.6213l3.5118-2.8101 3.5658-2.8102v5.6203l-3.5118 2.8099v5.6216l-3.5658 2.8699zm0-11.2391l-3.5661-2.8117-3.5659 2.75v-5.6222l10.6978-8.4306v11.2407zm10.6093-5.6834v-2.8098l3.566-2.8703.0418 5.6202-3.5625 2.8714z" fill="#eb8c23"/><path d="M7.132 33.6621V16.9235l3.5118-2.749.0443 5.5592 3.566 2.7484v5.6818l-3.566-2.6264v11.1174zM1.761 18.2072L0 16.741v-5.496l3.566 2.81v5.6205l-1.805-1.4683zm12.5032-6.9652V5.6217l7.0444 5.6203.0433 5.6204-7.0877-5.6204z" fill="#e35a2b"/><path d="M31.7707 13.1837v12.9166h-1.635V13.1837h-3.1799v-2.2279h7.9923v2.2274zm8.595 4.6919c.0991.5615.1443 1.1399.1323 1.718l-5.2794 2.1717c.0414.5486.0303.3256.155.7153s.2802.7095.466.9749.3957.4391.614.5605.471.1855.7168.1834c.3513 0 .6581-.0798.9422-.2378.2988-.1694.5805-.3945.8346-.6711l.9492 1.4273c-.3514.4696-.7632.845-1.2168 1.102-.4455.2594-.9802.391-1.6031.391-.4684.0017-.9332-.1296-1.3631-.3888-.4382-.2592-.8077-.6417-1.1288-1.1457s-.5759-1.1241-.7649-1.8602-.281-1.5846-.281-2.5082c0-.965.0887-1.8284.2664-2.5507s.4196-1.3409.7315-1.8491c.3105-.4936.6955-.882 1.1303-1.1334.4627-.2644.9572-.3978 1.4569-.3888.5815 0 1.0885.1507 1.5186.4536s.7914.7144 1.0761 1.2187c.2959.5468.5127 1.1669.6373 1.8283zm-1.5355.5124c-.0203-.3909-.2141-.8538-.3736-1.1612-.1509-.2767-.3529-.4896-.5845-.6186-.2384-.1307-.5635-.1866-.8492-.1693-.527.0326-1.1409.2902-1.4333.8526s-.3831 1.5393-.3719 2.5802zm7.4647 7.5718v-6.4209c0-1.1541-.15-1.9514-.4455-2.423s-.709-.6917-1.2285-.6917c-.5414 0-.9576.2514-1.2484.7559s-.4372 1.2185-.4372 2.1391v6.6376h-1.6125V14.6106h1.6044v1.0817c.2073-.4186.4958-.7326.8653-.9732s.7653-.3463 1.1929-.3463c.9545 0 1.6785.4262 2.172 1.2759s.7412 2.1204.7412 3.8047v6.5069h-1.6037zm8.1943-2.9829c0 .6335-.0855 1.1634-.2565 1.5887-.1634.4135-.3959.7659-.6781 1.0283s-.6158.4468-.9671.5602c-.3812.1168-.7707.1743-1.1611.1727-.5614 0-1.1187-.1363-1.675-.4105-.518-.2478-1.0092-.597-1.4569-1.0378l.7248-1.6761c.3651.362.7664.6464 1.1905.8443.4109.1873.81.2802 1.1922.2802.9967 0 1.4955-.4175 1.4955-1.2552 0-.4323-.1678-.7796-.505-1.0361s-.8035-.5475-1.3952-.8525c-.3825-.1964-.7551-.4308-1.1115-.7025-.308-.2388-.5575-.4934-.7504-.7676-.1849-.2594-.3268-.573-.412-.9187-.0837-.3385-.1251-.7312-.1251-1.1782 0-.5051.0677-.9511.202-1.3409.1318-.3843.3281-.7177.5755-.9717.2503-.2592.5452-.4551.8784-.5854s.7168-.1953 1.1217-.1953c.527 0 1.0194.1171 1.5043.3463s.9056.5338 1.2715.9078l-.691 1.6991c-.3331-.3317-.6713-.5758-1.0127-.7351s-.7028-.2378-1.1065-.2378-.6815.0977-.8581.2934c-.1687.1741-.268.452-.2646.7447a1.238 1.238 0 0 0 .0617.401c.0413.1209.1191.2488.2341.3646.1421.1549.2967.289.4594.3996.2483.1706.4985.3257.7552.4648l1.1995.7025c.3122.1963.6024.451.8651.7569.226.2678.405.6045.5212.9837.115.374.1725.8288.1725 1.3626zm7.4639-2.6167c0 .9383-.0945 1.777-.2819 2.5191s-.4383 1.3696-.7785 1.8805c-.3233.5028-.7201.9015-1.1672 1.1674-.4401.2684-.935.3996-1.4659.3996s-.9965-.1401-1.4336-.4214-.8248-.6921-1.1353-1.2007c-.324-.5179-.5751-1.1377-.756-1.86s-.2644-1.5274-.2644-2.4213c0-.9226.0929-1.7519.2807-2.4856s.4443-1.3587.7714-1.8708c.3163-.5043.7108-.9035 1.1539-1.1674.4494-.2665.9209-.3996 1.4398-.3996.4993-.0069.9929.1376 1.4497.4214.4415.2761.8388.6779 1.1611 1.1783s.5822 1.1219.7634 1.8489.2628 1.5315.2628 2.4106zm-1.6185.0635c0-1.1666-.177-2.0922-.5535-2.777s-.8815-1.0281-1.5367-1.0281c-.5755-.0275-1.1214.3614-1.4397 1.0281-.3464.6858-.52 1.5886-.52 2.7135 0 1.2552.1857 2.2082.5604 2.8629.3495.6414.9005 1.0079 1.4792.9844.3018 0 .5773-.1009.8258-.3021s.469-.4812.639-.8101c.1846-.363.3218-.7706.4049-1.2008.0929-.4608.1406-.9503.1406-1.4708zm6.7907-3.3285c-.1732-.1273-.3553-.229-.5444-.302s-.4144-.1211-.6844-.1211c-.5109 0-.9045.242-1.1853.734s-.4212 1.2185-.4212 2.1846v6.4855h-1.6052V14.7251H64.29v1.0814c.2025-.3926.4651-.7145.7705-.9413.3366-.2552.7151-.3854 1.0995-.3778.3312 0 .6125.0403.815.1193s.3961.1948.5693.3571l-.4208 2.1205z" fill="#ef6639"/><path d="M69.8208 13.1824v3.9583h3.1319v2.226h-3.1319v6.7236h-1.6366V10.9559h7.0259v2.2261zm5.656 12.9068V11.4967l1.6043-1.1673v15.7614zm9.8015-5.7279c0 .9384-.0939 1.7771-.2809 2.5191s-.4481 1.3696-.7801 1.8807c-.3235.5028-.7217.9014-1.1683 1.1673s-.9348.3996-1.4656.3996c-.5173 0-.9968-.1401-1.4324-.4215s-.8154-.6826-1.1375-1.2007-.5744-1.1377-.7552-1.8586-.2644-1.5288-.2644-2.4227c0-.9227.0916-1.7505.2806-2.4856s.4455-1.3588.7714-1.8708.7027-.9018 1.154-1.1673.9227-.3996 1.4398-.3996 1.0015.1401 1.4497.4214c.4416.276.8375.6778 1.1611 1.1781s.5816 1.1219.7633 1.8491.2645 1.5313.2645 2.4105zm-1.6205.0651c0-1.1666-.1756-2.0939-.5532-2.7786s-.8804-1.0267-1.5347-1.0267c-.6128 0-1.0949.34-1.4407 1.0267s-.521 1.5887-.521 2.7135c0 1.2552.1868 2.2083.5614 2.8644.3496.6399.9008 1.0066 1.4813.9828.2885.0046.5741-.0997.8238-.3019s.4704-.4811.639-.8101c.1757-.3394.312-.7389.4039-1.2008s.1412-.9504.1412-1.4693zm9.5339 5.6639h-1.3689l-1.1066-5.728-.2413-1.3281-.1796-1.0928-.1797 1.1037-.2413 1.3409-1.0905 5.7081h-1.3685l-2.245-11.3496h1.581l.9653 5.5122.2342 1.3627.1707 1.1247.2019-1.1247.2503-1.3627 1.0905-5.5122h1.2934l1.1065 5.534.2414 1.3527.1957 1.114.179-1.1337.2258-1.3528.9654-5.5128h1.5811z" fill="#a6a7a9"/></svg>